<?xml version="1.0" encoding="UTF-8"?>
<svg id="Calque_1" xmlns="http://www.w3.org/2000/svg" version="1.1" viewBox="0 0 1000 256">
  <!-- Generator: Adobe Illustrator 30.1.0, SVG Export Plug-In . SVG Version: 2.1.1 Build 136)  -->
  <defs>
    <style>
      .st0 {
        fill: #fbc780;
      }
    </style>
  </defs>
  <g>
    <path class="st0" d="M331.4,192.3c.1.8.4,1.9.7,3.2.3,1.3.8,2.7,1.5,4.3.6,1.5,1.5,3.1,2.4,4.7,1,1.6,2.2,3.1,3.6,4.4,1.6,1.6,3.1,2.7,4.5,3.6,1.5.8,2.8,1.4,4.2,1.8,1.3.4,2.6.6,3.8.6,1.2,0,2.3,0,3.3,0,3.6,0,6.5-.6,8.8-1.7,2.3-1.1,4.1-2.5,5.4-4.1,1.3-1.6,2.2-3.3,2.8-5.1.5-1.8.8-3.4.8-4.7,0-2.5-.6-4.6-1.8-6.2-1.2-1.6-2.8-3-4.7-4.1-2-1.1-4.2-2-6.7-2.7-2.5-.7-5.1-1.5-7.7-2.3-2.6-.8-5.2-1.7-7.7-2.7-2.5-1-4.7-2.4-6.7-4.1-2-1.7-3.5-3.7-4.7-6.1-1.2-2.4-1.8-5.5-1.8-9.1s.6-5.3,1.8-7.8c1.2-2.5,2.9-4.7,5.1-6.7,2.2-1.9,4.8-3.5,7.8-4.7,3-1.2,6.3-1.8,9.8-1.8s4.2.2,5.9.6,3.2.8,4.5,1.3c1.3.4,2.4.9,3.4,1.3,1,.4,1.9.6,2.7.6s1.6-.2,1.9-.5c.3-.3.6-.9,1-1.7h1.6v19.3h-1.3c-.8-2.4-1.7-4.7-2.6-7-.9-2.3-2.1-4.4-3.5-6.2-1.4-1.9-3.2-3.4-5.4-4.5-2.2-1.2-4.9-1.7-8.2-1.7s-5.1.4-7.2,1.1c-2.1.7-3.8,1.7-5.2,2.9-1.4,1.2-2.5,2.6-3.2,4.1-.7,1.5-1.1,3-1.1,4.6,0,2.4.6,4.3,1.9,5.9,1.3,1.6,2.9,2.9,4.9,4,2,1.1,4.3,2.1,7,2.9,2.6.8,5.3,1.7,8,2.5,2.7.9,5.4,1.8,8,2.9,2.6,1,4.9,2.4,7,4,2,1.6,3.7,3.6,4.9,5.9,1.3,2.3,1.9,5.1,1.9,8.5s-.7,6.5-2,9.4c-1.4,3-3.3,5.6-5.7,7.8-2.5,2.2-5.4,4-8.8,5.3-3.4,1.3-7.2,2-11.4,2s-4.2-.2-6.2-.6c-2.1-.4-4-.8-5.8-1.3-1.8-.4-3.4-.9-4.8-1.3-1.4-.4-2.4-.6-3.1-.6s-1.6.2-2,.5c-.4.3-.8.9-1.1,1.9h-1.6v-22.5h1.5Z"/>
    <path class="st0" d="M860.9,122.9l43,61.5h.3v-59.7h-11.9v-1.8h25.8v1.8h-11.9v90.1h-3.5l-58.1-82.8h-.3v81h11.9v1.8h-25.8v-1.8h11.9v-88.3h-11.9v-1.8h30.5Z"/>
    <path class="st0" d="M945.5,124.7c-3.2,0-6,.3-8.5,1-2.5.6-4.7,1.8-6.7,3.4-2,1.6-3.7,3.8-5.3,6.7-1.6,2.8-3,6.5-4.3,10.8h-1.7v-23.6h81v23.6h-1.7c-1.3-4.4-2.7-8-4.3-10.8-1.6-2.8-3.3-5.1-5.3-6.7-2-1.6-4.2-2.7-6.7-3.4-2.5-.6-5.3-1-8.5-1h-4.6v88.3h11.9v1.8h-42.5v-1.8h11.9v-88.3h-4.6Z"/>
    <g>
      <path class="st0" d="M396.5,159.2c1,.3,2.1.4,3.1.4s2-.1,3.1-.4c1-.3,2.1-.6,3.1-1v13.1h11.9v1.4h-11.9v34c0,1,0,2,.2,2.8.1.9.4,1.7.8,2.4.4.7.9,1.3,1.6,1.7.7.4,1.6.6,2.8.6s2.4-.3,3.3-.8c.9-.5,1.7-1.2,2.4-2.1.7-.8,1.2-1.8,1.7-2.9.4-1.1.8-2.1,1.1-3.1l1.5.3c-.4,2.3-1.1,4.1-2.1,5.5-1,1.4-2.1,2.5-3.4,3.2-1.3.7-2.6,1.2-4,1.5-1.4.2-2.8.4-4.1.4-3.5,0-6.2-.4-8.2-1.2-1.9-.8-3.4-1.8-4.3-3-.9-1.2-1.4-2.5-1.6-4-.1-1.4-.2-2.7-.2-4v-31.3h-6.8v-1.4h6.8v-13.1c1,.4,2,.7,3.1,1Z"/>
      <path class="st0" d="M477.8,122.9v1.8h-12.4l26.7,70,27.2-70h-11.6v-1.8h24.7v1.8h-11.1l-36.4,93.6h-3.7l-35.6-93.6h-10.8v-1.8h43.1Z"/>
      <path class="st0" d="M569.8,122.9v1.8h-11.9v88.3h11.9v1.8h-42.5v-1.8h11.9v-88.3h-11.9v-1.8h42.5Z"/>
      <path class="st0" d="M602,122.9l43,61.5h.3v-59.7h-11.9v-1.8h25.8v1.8h-11.9v90.1h-3.5l-58.1-82.8h-.3v81h11.9v1.8h-25.8v-1.8h11.9v-88.3h-11.9v-1.8h30.5Z"/>
      <path class="st0" d="M738.2,149.3c-.9-2.8-2.1-5.8-3.4-9-1.3-3.1-3.1-6-5.2-8.7-2.1-2.6-4.7-4.8-7.9-6.5-3.1-1.7-7-2.5-11.7-2.5s-11.2,1.2-14.9,3.5c-3.6,2.3-6.4,5.6-8.2,9.7-1.9,4.1-3,9.1-3.6,14.8-.5,5.7-.8,12-.8,18.8s.5,16.4,1.6,22.2c1,5.9,2.6,10.5,4.8,13.9,2.2,3.4,5,5.9,8.5,7.2,3.5,1.4,7.6,2.1,12.5,2.1s7.4-.8,10.5-2.3c3.1-1.5,5.9-3.6,8.3-6.1,2.4-2.5,4.4-5.4,6.1-8.7,1.6-3.3,2.8-6.7,3.6-10.2h2.1v27.4h-2.1c-.4-1-.9-1.7-1.6-2.1-.6-.4-1.5-.6-2.7-.6s-2.4.2-4,.7c-1.6.5-3.5,1-5.6,1.6-2.1.6-4.4,1.1-6.9,1.5-2.5.5-5.1.7-7.9.7-6.3,0-12.4-1.2-18.2-3.7-5.9-2.5-11-5.8-15.4-10.1-4.4-4.3-8-9.3-10.7-15-2.7-5.8-4-12-4-18.7s1.5-13.9,4.5-19.9c3-5.9,6.8-11,11.4-15.2,4.6-4.2,9.8-7.5,15.6-9.7,5.7-2.3,11.3-3.4,16.9-3.4s5.3.3,7.7.8c2.4.5,4.6,1.1,6.6,1.6,2,.6,3.9,1.1,5.5,1.6,1.6.5,3,.8,4.1.8s2.1-.1,2.7-.5c.6-.3,1-1.1,1.3-2.3h2.1v26.3h-1.7Z"/>
      <path class="st0" d="M822.6,122.9v22.1h-1.7c-.4-1.5-1.2-3.3-2.2-5.6-1-2.3-2.5-4.5-4.3-6.7-1.9-2.2-4.2-4-7.2-5.6-2.9-1.6-6.5-2.4-10.7-2.4h-20.5v39.9h7.2c3.2,0,5.9-.5,8.1-1.4,2.2-.9,4-2.2,5.5-3.9,1.5-1.7,2.7-3.7,3.6-6.1.9-2.4,1.7-5,2.3-7.9h1.7v40.2h-1.7c-.6-2.5-1.3-4.9-2.1-7.2-.8-2.3-1.9-4.4-3.3-6.1-1.4-1.8-3.1-3.2-5.1-4.2-2-1-4.5-1.6-7.6-1.6h-8.7v46.6h21.2c4,0,7.5-.7,10.7-2,3.2-1.3,6-3.2,8.5-5.6,2.5-2.4,4.5-5.2,6.1-8.5,1.6-3.2,2.9-6.7,3.7-10.4h1.7v28.3h-82.5v-1.8h11.9v-88.3h-11.9v-1.8h77.2Z"/>
    </g>
  </g>
  <g>
    <path class="st0" d="M405,44.7c-.9-2.8-2.1-5.8-3.4-9-1.3-3.1-3.1-6-5.2-8.7-2.1-2.6-4.7-4.8-7.9-6.5-3.1-1.7-7-2.5-11.7-2.5s-11.2,1.2-14.9,3.5c-3.6,2.3-6.4,5.6-8.2,9.7-1.9,4.1-3,9.1-3.6,14.8-.5,5.7-.8,12-.8,18.8s.5,16.4,1.6,22.2c1,5.9,2.6,10.5,4.8,13.9,2.2,3.4,5,5.9,8.5,7.2,3.5,1.4,7.6,2.1,12.5,2.1s7.4-.8,10.5-2.3c3.1-1.5,5.9-3.6,8.3-6.1,2.4-2.5,4.4-5.4,6.1-8.7,1.6-3.3,2.8-6.7,3.6-10.2h2.1v27.4h-2.1c-.4-1-.9-1.7-1.6-2.1-.6-.4-1.5-.6-2.7-.6s-2.4.2-4,.7c-1.6.5-3.5,1-5.6,1.6-2.1.6-4.4,1.1-6.9,1.5-2.5.5-5.1.7-7.9.7-6.3,0-12.4-1.2-18.2-3.7-5.9-2.5-11-5.8-15.4-10.1-4.4-4.3-8-9.3-10.7-15-2.7-5.8-4-12-4-18.7s1.5-13.9,4.5-19.9c3-5.9,6.8-11,11.4-15.2,4.6-4.2,9.8-7.5,15.6-9.7,5.7-2.3,11.3-3.4,16.9-3.4s5.3.3,7.7.8c2.4.5,4.6,1.1,6.6,1.6,2,.6,3.9,1.1,5.5,1.6,1.6.5,3,.8,4.1.8s2.1-.1,2.7-.5c.6-.3,1-1.1,1.3-2.3h2.1v26.3h-1.7Z"/>
    <path class="st0" d="M489.4,18.4v22.1h-1.7c-.4-1.5-1.2-3.3-2.2-5.6-1-2.3-2.5-4.5-4.3-6.7-1.9-2.2-4.2-4-7.2-5.6-2.9-1.6-6.5-2.4-10.7-2.4h-20.5v39.9h7.2c3.2,0,5.9-.5,8.1-1.4,2.2-.9,4-2.2,5.5-3.9,1.5-1.7,2.7-3.7,3.6-6.1.9-2.4,1.7-5,2.3-7.9h1.7v40.2h-1.7c-.6-2.5-1.3-4.9-2.1-7.2-.8-2.3-1.9-4.4-3.3-6.1-1.4-1.8-3.1-3.2-5.1-4.2-2-1-4.5-1.6-7.6-1.6h-8.7v46.6h21.2c4,0,7.5-.7,10.7-2,3.2-1.3,6-3.2,8.5-5.6,2.5-2.4,4.5-5.2,6.1-8.5,1.6-3.2,2.9-6.7,3.7-10.4h1.7v28.3h-82.5v-1.8h11.9V20.2h-11.9v-1.8h77.2Z"/>
    <path class="st0" d="M541.3,18.4v1.8h-11.9v88.3h21.3c2.8,0,5.7-.5,8.6-1.4,2.9-.9,5.6-2.5,8.1-4.7,2.5-2.2,4.8-5,6.8-8.5,2-3.5,3.6-7.7,4.7-12.7h1.7v29.2h-81.9v-1.8h11.9V20.2h-11.9v-1.8h42.5Z"/>
    <path class="st0" d="M626.8,18.4v1.8h-11.9v88.3h21.3c2.8,0,5.7-.5,8.6-1.4,2.9-.9,5.6-2.5,8.1-4.7,2.5-2.2,4.8-5,6.8-8.5,2-3.5,3.6-7.7,4.7-12.7h1.7v29.2h-81.9v-1.8h11.9V20.2h-11.9v-1.8h42.5Z"/>
    <path class="st0" d="M711.4,18.4v1.8h-11.9v88.3h11.9v1.8h-42.5v-1.8h11.9V20.2h-11.9v-1.8h42.5Z"/>
    <path class="st0" d="M790.7,18.4v22.1h-1.7c-.4-1.5-1.2-3.3-2.2-5.6-1-2.3-2.5-4.5-4.3-6.7-1.9-2.2-4.2-4-7.2-5.6-2.9-1.6-6.5-2.4-10.7-2.4h-20.5v39.9h7.2c3.2,0,5.9-.5,8.1-1.4,2.2-.9,4-2.2,5.5-3.9,1.5-1.7,2.7-3.7,3.6-6.1.9-2.4,1.7-5,2.3-7.9h1.7v40.2h-1.7c-.6-2.5-1.3-4.9-2.1-7.2-.8-2.3-1.9-4.4-3.3-6.1-1.4-1.8-3.1-3.2-5.1-4.2-2-1-4.5-1.6-7.6-1.6h-8.7v46.6h21.2c4,0,7.5-.7,10.7-2,3.2-1.3,6-3.2,8.5-5.6,2.5-2.4,4.5-5.2,6.1-8.5,1.6-3.2,2.9-6.7,3.7-10.4h1.7v28.3h-82.5v-1.8h11.9V20.2h-11.9v-1.8h77.2Z"/>
    <path class="st0" d="M798.7,20.2v-1.8h19.5c3.6,0,7.2,0,10.7-.2,3.5-.1,7.1-.2,10.7-.2s6.9.3,10.7,1c3.7.7,7.2,1.9,10.3,3.6,3.1,1.7,5.7,3.9,7.7,6.8,2,2.8,3,6.4,3,10.7s-.8,6.4-2.3,8.8c-1.6,2.5-3.6,4.5-6,6-2.5,1.6-5.2,2.7-8.2,3.6-3,.8-6,1.4-8.9,1.6v.6c4.2.8,8,1.5,11.3,2.3,3.3.8,6.2,1.9,8.6,3.5,2.4,1.6,4.3,3.7,5.7,6.5,1.4,2.8,2.3,6.5,2.6,11.1.4,5.4.8,9.8,1,13,.3,3.3.6,5.8,1.1,7.6.5,1.8,1.1,3,1.9,3.6.8.6,2,.9,3.6.9s3.1-.5,4.3-1.5c1.1-1,2.1-1.9,3-2.8l1.3,1.2c-.9.9-1.7,1.7-2.5,2.4-.8.7-1.8,1.4-2.8,1.9-1.1.5-2.4.9-3.9,1.2-1.6.3-3.5.5-5.8.5-4.7,0-8.4-.8-11.1-2.3-2.7-1.5-4.6-3.4-5.9-5.6-1.3-2.2-2.1-4.7-2.4-7.3-.3-2.6-.5-5.1-.6-7.4-.2-3.5-.4-7-.7-10.3-.3-3.3-1-6.3-2.1-8.8-1.1-2.6-2.8-4.6-5-6.2-2.2-1.6-5.4-2.3-9.4-2.3h-8.5v46.6h11.9v1.8h-42.5v-1.8h11.9V20.2h-11.9ZM834.6,60.1c3.9,0,6.9-.5,9.2-1.6,2.2-1,3.9-2.4,5-4.2,1.1-1.8,1.8-3.8,2.1-6,.3-2.2.5-4.5.5-6.8,0-3.8-.3-7-.8-9.7-.5-2.7-1.4-4.9-2.6-6.7-1.2-1.8-2.9-3.1-5-3.9-2.1-.9-4.8-1.3-8.1-1.3s-1.9,0-2.8.1c-.9,0-1.9.2-2.8.3v39.9h5.3Z"/>
  </g>
  <path class="st0" d="M236.5,18.1h-46c-1.6,0-3.1-.5-4.4-1.6C173.9,6.5,158.2.5,141.1.5s-32.7,6-45,16.1c-1.2,1-2.8,1.6-4.4,1.6h-45.6c-3.1,0-6.1,1.3-8.2,3.6L2.7,60.4c-3.6,4-3.6,10.1,0,14.1l36.9,39.8,4.4,4.8,1.8,1.9,3.7,4,.7.8,37.6,40.5-13.6,50.7c-.1.4.4.7.7.4l29.3-32.9.2-.2,32.3,34.8c2.5,2.7,6.8,2.7,9.3,0l32.3-34.8.3.4,29.2,32.8c.3.3.8,0,.7-.4l-13.6-50.7,37.6-40.5,4.4-4.8,1.8-1.9,4.4-4.8,3.9-4.3,32.9-35.5c3.7-4,3.7-10.1,0-14.1l-35.2-38.7c-2.1-2.3-5.1-3.6-8.2-3.6ZM202.4,54.5h-4.5c-1.2-3.8-2.7-7.5-4.6-11-10-18.4-29.5-30.9-51.8-30.9s-42.2,12.8-52.1,31.5c-1.7,3.3-3.1,6.7-4.2,10.3h-5.2c7.5-26.7,32.1-46.4,61.2-46.4s53.7,19.7,61.2,46.4ZM211.6,61.6c4.9,7.1,7.8,15.6,7.8,24.8s-3.4,19.2-9,26.6c-.3.4-.8.6-1.2.6h-11.1v-54.4h11.4c.3,0,.5.1.7.3.5.7,1,1.3,1.5,2ZM150.1,121c-.3,0-.5-.2-.6-.4l-.7-1.5-.9-2c-.7-1.7-2.4-2.7-4.2-2.7h-4.8c-1.8,0-3.5,1.1-4.2,2.7l-.9,2-.7,1.5c-.1.2-.4.4-.6.4h-38.2l-1.8-1.9-.7-.7-2.5-2.7v-28.1h103.9v28.1l-2.6,2.7-.6.7-1.8,1.9h-38.2ZM78.8,59.2h5.8v23.6h0v30.7h-11.1c-.5,0-1-.2-1.2-.6-5.7-7.4-9-16.6-9-26.6s2.7-17.3,7.4-24.3c.6-.9,1.2-1.7,1.8-2.5s.4-.3.7-.3h5.7ZM192.9,54.5c.3.8.4,1.7.4,2.6v25.8h-103.9v-24.8c0-.8.1-1.6.3-2.3s.3-.9.4-1.3c7.2-21.5,27.5-37,51.4-37s44.2,15.5,51.4,37c0,0,0,0,0,0ZM72,137.6l-3.7-4.2h0c0,0,0-.1,0-.1l-7-7.5-4.4-4.8-1.8-1.9-4.4-4.8-.9-1L9.5,70.5c-1.7-1.8-1.7-4.5,0-6.3L42.6,27.8c1.2-1.3,2.9-2.1,4.7-2.1h39.4c-6.9,8.2-12.1,18-14.7,28.7h0c-1,0-2,.5-2.7,1.3-.9,1.1-1.8,2.3-2.6,3.5-5.3,7.8-8.4,17.1-8.4,27.2s3.1,19.4,8.4,27.2c.7,1,1.4,2,2.2,3,.9,1.1,2.2,1.8,3.7,1.8h11.9c0,0,.2,0,.2.1l12.2,13.1c0,0,0,.2,0,.3l-6.9,25.7-18.2-19.9ZM102.4,175l-3.2,3.6-.8.9-.7.8-2.2,2.4-2.2,2.5-3.7,4.2,11.7-43.7,1.6-6,.4-1.4,15.4,16.5c.5.5.5,1.3,0,1.9h0s-3.5,3.9-3.5,3.9l-10.9,12.2-1.9,2.1ZM140.4,211.8l-30.9-33.4,10.9-12.2,3.5-3.9.8-.9h0c2-2.2,1.9-5.6,0-7.8l-1.6-1.7-18.1-19.5-6.1-6.6h34.2c1.9,0,3.6-1.1,4.3-2.8l1.6-3.6c0-.2.2-.3.4-.3h4c.2,0,.3.1.4.3l1.6,3.6c.8,1.7,2.5,2.8,4.3,2.8h34.2l-6.1,6.6-18.1,19.5-5.2,5.6-10.7,11.5-2.4,2.6-2.4,2.6-.4.4h0s0,0,0,0l-.7.8-.8.9-.9,1-1.7,1.9c-.5.6-.5,1.4,0,2l2.6,2.8,1.8,1.9.3.3,2.1,2.3c.6.6,1.6.6,2.2,0l.5-.5,2-2.1.9-.9,2.6-2.8c.5-.6.5-1.4,0-2l-2.5-2.8h0c0,0,0,0,0,0l-2.8,3.1-.6.7-.8.9-1.7-1.9.8-.9,2.4-2.6,1.2-1.3,13-14,1.6,1.8,3.5,3.9,10.1,11.3-30.9,33.4c-.5.5-1.4.5-1.9,0ZM178.3,172.9l-10.1-11.3-3.5-3.9-.8-.9c-.5-.5-.5-1.3,0-1.9l15.4-16.5.7,2.8,1.6,6,4.6,17.2.2.7,6.6,24.4-3.7-4.2-2.2-2.4-8.2-9.2-.7-.7ZM244.6,101l-12.5,13.4-4.4,4.8-1.8,1.9-4.4,4.8-7,7.5h0c0,0,0,.1,0,.1l-3.7,4.2-18.2,19.9-4.6-17.1-1.6-6-.7-2.6c0,0,0-.2,0-.3l12.1-13.1c0,0,.1-.1.2-.1h12c1.4,0,2.8-.6,3.7-1.8.8-1,1.5-2,2.2-3,5.3-7.8,8.4-17.1,8.4-27.2s-3.1-19.4-8.4-27.2c-.8-1.2-1.7-2.4-2.6-3.5-.7-.8-1.6-1.3-2.7-1.3h-.3c-2.7-10.8-7.8-20.6-14.8-28.8h39.7c1.8,0,3.5.8,4.7,2.1l33.1,36.3c1.6,1.8,1.6,4.6,0,6.3l-28.4,30.4Z"/>
  <g>
    <path class="st0" d="M340.9,255.1h-10.9v-21.8h10.9c3,0,5.6,1.1,7.8,3.2s3.2,4.7,3.2,7.7-1.1,5.6-3.2,7.7c-2.1,2.1-4.7,3.2-7.8,3.2ZM334.3,237.4v13.6h6.6c1.9,0,3.4-.7,4.8-2,1.3-1.3,2-2.9,2-4.8s-.7-3.5-2-4.8c-1.3-1.3-2.9-2-4.8-2h-6.6Z"/>
    <path class="st0" d="M365.3,233.3v21.8h-4.3v-21.8h4.3Z"/>
    <path class="st0" d="M385.8,255.5c-2.2,0-4.4-.4-6.5-1.3s-3.4-2-4.1-3.4l3.4-2.1c.6.8,1.5,1.5,2.9,2,1.4.5,2.8.8,4.3.8s3.8-.3,5-.8c.9-.5,1.4-1.1,1.4-1.9,0-.8-.4-1.4-1.3-1.8-.6-.3-2.3-.6-4.8-.9-3.2-.3-5.4-.7-6.5-1.2-2.5-1.1-3.7-2.8-3.6-5.2,0-2.5,1.3-4.3,3.8-5.5,1.8-.9,4.1-1.3,6.9-1.3,4.9,0,8,1.5,9.3,4.6l-3.7,1.9c-.8-1.8-2.8-2.6-5.9-2.6s-2.9.2-4.2.7c-1.3.4-1.9,1.1-2,2,0,1.6,1.1,2.2,3.9,2.6l2.2.2c.3,0,.9,0,1.9.2,2.1.3,3.7.6,4.7,1,2.5,1,3.7,2.8,3.6,5.2,0,0,0,.2,0,.3,0,1.5-.6,2.7-1.6,3.7-1,1-2.3,1.7-3.8,2.1-1.5.4-3.2.6-5.1.6Z"/>
    <path class="st0" d="M408.7,252.1c-2.4-2.2-3.6-4.8-3.6-7.8s1.2-5.6,3.6-7.8c2.3-2.1,5.1-3.2,8.5-3.2s4.1.5,5.9,1.4c1.8.9,3.3,2.2,4.4,3.8l-3.5,2.4c-1.4-2.2-4-3.5-6.8-3.5s-4,.7-5.5,2c-1.5,1.3-2.3,2.9-2.3,4.8s.7,3.5,2.3,4.8c1.5,1.3,3.4,2,5.5,2s5.4-1.3,6.9-3.6l3.5,2.4c-1.1,1.7-2.6,3-4.4,3.9-1.9.9-3.8,1.4-5.9,1.4-3.3,0-6.1-1.1-8.5-3.2Z"/>
    <path class="st0" d="M447.9,255.2c-6.5.1-12.2-5-12-11-.1-6.1,5.6-11.2,12-11,3.3,0,6.1,1.1,8.5,3.2,2.4,2.1,3.6,4.7,3.6,7.8.1,6.1-5.7,11.2-12.1,11ZM442.4,249.1c1.5,1.3,3.4,2,5.5,2s4-.7,5.5-2c1.5-1.3,2.3-2.9,2.3-4.8s-.8-3.5-2.3-4.8c-1.5-1.3-3.4-2-5.5-2s-4,.7-5.5,2c-1.5,1.3-2.3,2.9-2.3,4.8s.7,3.5,2.3,4.8Z"/>
    <path class="st0" d="M476.6,255.1v-17.7h-8.8v-4.1h21.9v4.1h-8.8v17.7h-4.3Z"/>
    <path class="st0" d="M502.9,246.3v8.8h-4.3v-21.8h4.3v8.8h13.4v-8.8h4.3v21.8h-4.3v-8.8h-13.4Z"/>
    <path class="st0" d="M551.6,251.1v4.1h-20.5v-21.8h20.5v4.1h-16.2v4.9h11v3.9h-11v4.9h16.2ZM534.4,226.5h6.3l7.9,4.8h-5.3l-8.9-4.8Z"/>
    <path class="st0" d="M572.5,233.3c3.3,0,6.1,1,8.4,3.1,2.4,2.1,3.6,4.7,3.6,7.8s-.9,5-2.8,6.9h2.8v4.1c-2.1,0-3.6,0-4.5-.1-.9-.1-1.9-.4-2.9-.8-1.5.6-3.1.9-4.7.9-3.1,0-6.2-1.1-8.4-3.1-2.4-2.1-3.6-4.8-3.6-7.8s1.2-5.6,3.6-7.8c2.2-2,5.3-3.1,8.4-3.1ZM567,249.1c1.5,1.3,3.4,2,5.5,2s4-.7,5.5-2c1.5-1.3,2.3-2.9,2.3-4.8s-.8-3.5-2.3-4.8c-1.5-1.3-3.4-2-5.5-2s-4,.7-5.5,2c-1.5,1.3-2.3,2.9-2.3,4.8s.7,3.5,2.3,4.8Z"/>
    <path class="st0" d="M594.1,244.4v-11h4.3v11c0,1.9.6,3.5,1.9,4.8,1.3,1.3,2.9,2,4.7,2s3.4-.7,4.7-2c1.3-1.3,2-2.9,2-4.8v-11h4.3v11c0,3-1.1,5.6-3.2,7.7-2.1,2.1-4.7,3.2-7.7,3.2s-5.6-1.1-7.7-3.2c-2.1-2.1-3.2-4.7-3.2-7.7Z"/>
    <path class="st0" d="M647,251.1v4.1h-20.5v-21.8h20.5v4.1h-16.2v4.9h11v3.9h-11v4.9h16.2Z"/>
  </g>
</svg>