<?xml version="1.0" encoding="UTF-8"?>
<svg id="Calque_1" xmlns="http://www.w3.org/2000/svg" version="1.1" viewBox="0 0 360 360">
  <!-- Generator: Adobe Illustrator 30.1.0, SVG Export Plug-In . SVG Version: 2.1.1 Build 136)  -->
  <defs>
    <style>
      .st0 {
        fill: #fff;
      }
    </style>
  </defs>
  <path class="st0" d="M136.5,74.5c-11.2.5-18.8,2.3-25.5,4.9-6.9,2.7-12.8,6.3-18.6,12.2-5.8,5.9-9.4,11.7-12.1,18.6-2.6,6.7-4.3,14.3-4.8,25.5-.5,11.2-.6,14.8-.5,43.3,0,28.5.2,32.1.7,43.3.5,11.2,2.3,18.8,4.9,25.5,2.7,6.9,6.3,12.8,12.2,18.6,5.9,5.8,11.7,9.4,18.6,12.1,6.7,2.6,14.3,4.3,25.5,4.8,11.2.5,14.8.6,43.3.5,28.6,0,32.1-.2,43.3-.7,11.2-.5,18.8-2.3,25.5-4.9,6.9-2.7,12.8-6.3,18.6-12.2,5.8-5.9,9.4-11.7,12.1-18.6,2.6-6.7,4.3-14.3,4.8-25.5.5-11.2.6-14.8.6-43.3,0-28.5-.2-32.1-.7-43.3-.5-11.2-2.3-18.8-4.9-25.5-2.7-6.9-6.3-12.8-12.2-18.6-5.9-5.8-11.7-9.4-18.6-12.1-6.7-2.6-14.3-4.4-25.5-4.8-11.2-.5-14.8-.6-43.3-.6-28.5,0-32.1.2-43.3.7M137.7,264.6c-10.2-.4-15.8-2.1-19.5-3.6-4.9-1.9-8.4-4.2-12.1-7.8-3.7-3.7-6-7.2-7.9-12.1-1.4-3.7-3.2-9.3-3.7-19.5-.5-11.1-.6-14.4-.7-42.5,0-28.1,0-31.4.5-42.5.4-10.2,2.2-15.8,3.6-19.5,1.9-4.9,4.2-8.4,7.8-12.1,3.7-3.7,7.2-6,12.1-7.9,3.7-1.4,9.3-3.2,19.5-3.7,11.1-.5,14.4-.6,42.5-.7,28.1,0,31.4,0,42.5.5,10.2.4,15.8,2.1,19.5,3.6,4.9,1.9,8.4,4.2,12.1,7.8,3.7,3.7,6,7.2,7.9,12.1,1.4,3.7,3.2,9.3,3.7,19.5.5,11.1.6,14.4.7,42.5,0,28.1,0,31.4-.5,42.5-.4,10.2-2.1,15.8-3.6,19.5-1.9,4.9-4.2,8.4-7.8,12.1-3.7,3.7-7.2,6-12.1,7.9-3.7,1.4-9.3,3.2-19.5,3.7-11.1.5-14.4.6-42.5.7-28.1,0-31.4,0-42.5-.5M223.4,122.7c0,7,5.7,12.6,12.6,12.6,7,0,12.6-5.7,12.6-12.6,0-7-5.7-12.6-12.6-12.6-7,0-12.6,5.7-12.6,12.6M126.1,179c0,29.8,24.3,53.9,54.1,53.9,29.8,0,53.9-24.3,53.9-54.1,0-29.8-24.3-53.9-54.1-53.9-29.8,0-53.9,24.3-53.9,54.1M145,179c0-19.3,15.6-35.1,35-35.1,19.3,0,35.1,15.6,35.1,35,0,19.4-15.6,35.1-35,35.1-19.3,0-35.1-15.6-35.1-35"/>
</svg>