<?xml version="1.0" encoding="UTF-8"?>
<svg id="Calque_1" xmlns="http://www.w3.org/2000/svg" version="1.1" viewBox="0 0 360 360">
  <!-- Generator: Adobe Illustrator 30.1.0, SVG Export Plug-In . SVG Version: 2.1.1 Build 136)  -->
  <defs>
    <style>
      .st0 {
        fill: #010101;
      }

      .st1 {
        fill: #fff;
      }
    </style>
  </defs>
  <g id="PRIMARY_-_GHOST">
    <path class="st1" d="M273.1,231.5c-33.7-16.3-39.1-41.4-39.3-43.3-.2-2.2-.6-4.1,1.9-6.3,2.5-2.2,13.1-8.8,16-10.9,4.9-3.4,7-6.8,5.5-11-1.1-2.9-3.9-4-6.7-4s-1.8.1-2.7.4c-5.4,1.2-10.6,3.9-13.6,4.6-.4.1-.7.1-1.1.1-1.6,0-2.2-.7-2.1-2.7.4-5.8,1.2-17.3.2-28.1-1.3-14.7-6.1-22-11.7-28.5-2.7-3.2-15.4-16.6-39.8-16.6s-37.1,13.5-39.8,16.5c-5.6,6.4-10.4,13.8-11.7,28.5-.9,10.8-.1,22.2.2,28.1.1,1.9-.5,2.7-2.1,2.7s-.7,0-1.1-.1c-3-.7-8.2-3.4-13.6-4.6-.8-.2-1.8-.4-2.7-.4-2.8,0-5.5,1.1-6.7,4-1.6,4.2.6,7.6,5.5,11,2.9,2.1,13.6,8.7,16,10.9,2.5,2.3,2.2,4.1,1.9,6.3-.2,1.9-5.6,27-39.3,43.3-2,.9-5.4,2.9.6,6.2,9.2,5.1,15.4,4.6,20.2,7.7,4.1,2.6,1.6,8.3,4.7,10.3,3.6,2.6,14.4-.2,28.3,4.4,11.7,3.9,18.7,14.7,39.4,14.7s28-10.9,39.4-14.7c13.9-4.6,24.7-1.9,28.3-4.4,2.9-2,.6-7.7,4.7-10.3,4.8-3,11-2.6,20.2-7.7,6-3.2,2.6-5.1.6-6.1Z"/>
    <path class="st0" d="M287.7,229.5c-1.5-4.1-4.3-6.3-7.7-8.1-.6-.4-1.2-.7-1.6-.8-.9-.5-2-.9-2.9-1.5-10.2-5.4-18.1-12.3-23.7-20.4-1.5-2.2-2.9-4.7-4.1-7.3-.5-1.4-.5-2.1-.1-2.8.4-.6.8-1.1,1.3-1.4,1.8-1.2,3.5-2.3,4.8-3.2,2.2-1.4,4-2.6,5-3.3,4.2-2.9,7.1-6.1,9-9.5,2.6-4.9,2.9-10.6.9-15.8-2.8-7.3-9.7-11.8-18-11.8s-3.5.2-5.3.6c-.5.1-.9.2-1.4.4.1-5,0-10.3-.5-15.4-1.5-18.3-8-27.8-14.6-35.4-4.2-4.8-9.2-8.8-14.9-11.9-10.1-6-21.5-8.9-34-8.9s-23.9,2.9-34,8.8c-5.6,3.2-10.6,7.3-14.9,12-6.7,7.6-13.1,17.2-14.6,35.4-.5,5.1-.6,10.5-.5,15.4-.5-.1-.9-.2-1.4-.4-1.8-.4-3.5-.6-5.3-.6-8.4,0-15.3,4.6-18,11.8-2,5.1-1.6,10.9.9,15.8,1.9,3.5,4.8,6.6,9,9.5,1.1.8,2.8,1.9,5,3.3,1.2.8,2.9,1.9,4.6,3,.6.4,1.1.9,1.5,1.5.4.7.4,1.5-.1,2.9-1.2,2.5-2.5,4.8-4,7-5.4,8-13.1,14.6-23,20-5.3,2.8-10.6,4.7-13,10.9-1.8,4.7-.6,10.1,3.9,14.6h0c1.6,1.6,3.5,3.2,5.5,4.2,4.3,2.3,8.9,4.2,13.6,5.4.9.2,1.9.7,2.7,1.2,1.6,1.4,1.4,3.5,3.5,6.7,1.1,1.6,2.5,3,4,4.1,4.4,3,9.5,3.3,14.9,3.5,4.8.2,10.3.4,16.5,2.5,2.6.8,5.3,2.5,8.4,4.4,7.5,4.6,17.7,10.9,34.9,10.9s27.5-6.3,35-11c3-1.9,5.7-3.5,8.3-4.3,6.2-2.1,11.7-2.2,16.5-2.5,5.4-.2,10.4-.4,14.9-3.5,1.9-1.3,3.4-3,4.6-5,1.5-2.6,1.5-4.4,2.9-5.7.8-.6,1.6-.9,2.6-1.2,4.8-1.3,9.5-3,13.8-5.5,2.2-1.2,4.2-2.7,5.8-4.6h0c4.2-4.3,5.3-9.5,3.5-14.2ZM272.5,237.7c-9.2,5.1-15.4,4.6-20.2,7.7-4.1,2.6-1.6,8.3-4.7,10.3-3.6,2.6-14.4-.2-28.3,4.4-11.5,3.7-18.8,14.7-39.4,14.7s-27.7-10.9-39.4-14.7c-13.9-4.6-24.7-1.9-28.3-4.4-2.9-2-.6-7.7-4.7-10.3-4.8-3-11-2.6-20.2-7.6-6-3.3-2.6-5.3-.6-6.2,33.7-16.3,39.1-41.4,39.3-43.3.2-2.2.6-4.1-1.9-6.3-2.5-2.2-13.1-8.8-16-10.9-4.9-3.4-7-6.8-5.5-11,1.1-2.9,3.9-4,6.7-4s1.8.1,2.7.4c5.4,1.2,10.6,3.9,13.6,4.6.4.1.7.1,1.1.1,1.6,0,2.2-.8,2.1-2.7-.4-5.8-1.2-17.3-.2-28.1,1.3-14.7,6-22,11.7-28.5,2.7-3.2,15.4-16.6,39.8-16.6s37.1,13.5,39.8,16.5c5.6,6.4,10.4,13.8,11.7,28.5.9,10.8.1,22.2-.2,28.1-.1,2,.5,2.7,2.1,2.7s.7,0,1.1-.1c3-.7,8.2-3.4,13.6-4.6.8-.2,1.8-.4,2.7-.4,2.8,0,5.5,1.1,6.7,4,1.6,4.2-.6,7.6-5.5,11-2.9,2.1-13.6,8.7-16,10.9-2.5,2.3-2.2,4.1-1.9,6.3.2,1.9,5.6,27,39.3,43.3,2,.9,5.4,2.9-.6,6.2Z"/>
  </g>
</svg>