<?xml version="1.0" encoding="UTF-8"?>
<svg id="Calque_1" xmlns="http://www.w3.org/2000/svg" version="1.1" viewBox="0 0 360 360">
  <!-- Generator: Adobe Illustrator 30.1.0, SVG Export Plug-In . SVG Version: 2.1.1 Build 136)  -->
  <defs>
    <style>
      .st0 {
        fill: #e83659;
      }

      .st1 {
        fill: #fff;
      }

      .st2 {
        fill: #6ac4d0;
      }
    </style>
  </defs>
  <path class="st2" d="M158.9,156.8v-8.7c-2.9-.4-5.9-.6-8.9-.6-36.5,0-66.1,29.7-66.1,66.1s11.2,42.2,28.2,54.1c-11-11.8-17.5-27.6-17.5-45,0-35.9,28.6-65,64.3-65.9Z"/>
  <path class="st2" d="M160.5,253.1c16.3,0,29.7-13.1,30.3-29.3V80c.1,0,26.2,0,26.2,0v-.2c-.6-3-.9-6-.9-9.1h-35.9v144c-.7,16.1-13.9,29.1-30.2,29.1s-9.8-1.3-14-3.5c5.5,7.6,14.4,12.8,24.5,12.8Z"/>
  <path class="st2" d="M266.1,129.1v-8.4c-10,0-19.4-3-27.2-8.1,7,8,16.5,14.2,27.2,16.5Z"/>
  <path class="st0" d="M238.9,112.6c-7.6-8.8-12.3-20.2-12.3-32.8h-9.8c2.5,13.7,10.8,25.4,22.1,32.8Z"/>
  <path class="st0" d="M150,183.1c-16.7,0-30.4,13.8-30.4,30.5s6.8,21.7,16.4,26.7c-3.6-5-5.7-11-5.7-17.6,0-16.7,13.5-30.2,30.2-30.2s6.1.5,8.9,1.4v-36.7c-2.9-.4-5.9-.6-8.9-.6s-1,0-1.6,0h-.1s0,27.8,0,27.8c-2.8-.9-5.6-1.3-8.7-1.3Z"/>
  <path class="st0" d="M266.1,128.7h-.2s0,27.7,0,27.7c-18.6,0-35.9-6.1-50-16.2v73.4c0,36.5-29.4,65.9-65.9,65.9s-27.2-4.3-37.9-11.8c12.1,13,29.3,21.1,48.4,21.1,36.5,0,66.1-29.7,66.1-66.1v-73c14.1,10.1,31.4,16.1,50,16.1v-35.9c-3.6,0-7.1-.4-10.5-1.1Z"/>
  <path class="st1" d="M216.2,213.6v-73c14.1,10.1,31.4,16.1,50,16.1v-27.9c-10.8-2.3-20.2-8.1-27.2-16.1-11.3-7.3-19.4-19.1-21.9-32.8h-26.3v144c-.7,16.1-13.9,29.1-30.2,29.1s-19-5-24.5-12.6c-9.6-5.1-16.2-15.1-16.2-26.7,0-16.7,13.5-30.2,30.2-30.2s6.1.5,8.9,1.4v-28.2c-35.7.8-64.6,30.1-64.6,66.1s6.8,33.2,17.8,45c10.7,7.5,23.8,12,37.9,12,36.5,0,66.1-29.7,66.1-66.1Z"/>
</svg>